HIERARCHY
ROOT Hips
{
	OFFSET 228.634003 92.561920 -263.051910
	CHANNELS 6 Xposition Yposition Zposition Zrotation Yrotation Xrotation 
	JOINT LeftUpLeg
	{
		OFFSET 0.103458 1.857820 10.548502
		CHANNELS 3 Xrotation Yrotation Zrotation
		JOINT LeftLeg
		{
			OFFSET 43.500000 -0.000023 -0.000011
			CHANNELS 3 Xrotation Yrotation Zrotation
			JOINT LeftFoot
			{
				OFFSET 42.372192 0.000038 0.000002
				CHANNELS 3 Xrotation Yrotation Zrotation
				JOINT LeftToe
				{
					OFFSET 17.299992 -0.000004 0.000006
					CHANNELS 3 Xrotation Yrotation Zrotation
					End Site
					{
						OFFSET 0.000000 0.000000 0.000000
					}
				}
			}
		}
	}
	JOINT RightUpLeg
	{
		OFFSET 0.103461 1.857814 -10.548508
		CHANNELS 3 Xrotation Yrotation Zrotation
		JOINT RightLeg
		{
			OFFSET 43.500042 -0.000015 0.000008
			CHANNELS 3 Xrotation Yrotation Zrotation
			JOINT RightFoot
			{
				OFFSET 42.372253 0.000008 0.000006
				CHANNELS 3 Xrotation Yrotation Zrotation
				JOINT RightToe
				{
					OFFSET 17.299973 -0.000014 0.000011
					CHANNELS 3 Xrotation Yrotation Zrotation
					End Site
					{
						OFFSET 0.000000 0.000000 0.000000
					}
				}
			}
		}
	}
	JOINT Spine
	{
		OFFSET 6.901966 -2.603737 -0.000007
		CHANNELS 3 Xrotation Yrotation Zrotation
		JOINT Spine1
		{
			OFFSET 12.588102 0.000017 0.000001
			CHANNELS 3 Xrotation Yrotation Zrotation
			JOINT Spine2
			{
				OFFSET 12.343197 -0.000013 0.000000
				CHANNELS 3 Xrotation Yrotation Zrotation
				JOINT Neck
				{
					OFFSET 25.832905 -0.000008 0.000000
					CHANNELS 3 Xrotation Yrotation Zrotation
					JOINT Head
					{
						OFFSET 11.766610 0.000009 -0.000002
						CHANNELS 3 Xrotation Yrotation Zrotation
						End Site
						{
							OFFSET 0.000000 0.000000 0.000000
						}
					}
				}
				JOINT LeftShoulder
				{
					OFFSET 19.745903 -1.480377 6.000115
					CHANNELS 3 Xrotation Yrotation Zrotation
					JOINT LeftArm
					{
						OFFSET 11.284125 -0.000014 -0.000024
						CHANNELS 3 Xrotation Yrotation Zrotation
						JOINT LeftForeArm
						{
							OFFSET 33.000046 -0.000012 0.000029
							CHANNELS 3 Xrotation Yrotation Zrotation
							JOINT LeftHand
							{
								OFFSET 25.199989 0.000034 0.000012
								CHANNELS 3 Xrotation Yrotation Zrotation
								End Site
								{
									OFFSET 0.000000 0.000000 0.000000
								}
							}
						}
					}
				}
				JOINT RightShoulder
				{
					OFFSET 19.746098 -1.480362 -6.000071
					CHANNELS 3 Xrotation Yrotation Zrotation
					JOINT RightArm
					{
						OFFSET 11.284137 -0.000006 -0.000008
						CHANNELS 3 Xrotation Yrotation Zrotation
						JOINT RightForeArm
						{
							OFFSET 33.000095 0.000017 0.000000
							CHANNELS 3 Xrotation Yrotation Zrotation
							JOINT RightHand
							{
								OFFSET 25.199778 0.000144 0.000423
								CHANNELS 3 Xrotation Yrotation Zrotation
								End Site
								{
									OFFSET 0.000000 0.000000 0.000000
								}
							}
						}
					}
				}
			}
		}
	}
}
MOTION
Frames: 11
Frame Time: 0.033333
-229.815308 81.032440 -152.254196 86.455681 27.603525 -104.234984 102.927877 -3.796905 -175.772118 -72.573383 -3.279762 -14.217572 84.936257 8.869832 -5.584119 21.454558 0.003112 0.000018 179.708260 6.279602 170.917588 -26.882786 3.599149 1.126094 70.528035 2.058552 8.802810 21.454553 -0.003095 0.000006 13.314804 -2.609064 0.905749 16.601297 -5.320905 1.428345 16.281812 -5.312296 1.460517 3.484081 -1.050377 4.109315 -34.912430 -7.201921 8.172015 -179.957016 -84.358608 -1.637954 28.577452 33.566849 66.578492 -70.468038 -11.995871 2.338171 -14.422143 -21.166664 20.754421 -17.294654 88.546668 164.544708 -33.882058 -15.256990 39.021841 -117.585299 -1.082837 -3.434112 -6.876497 4.675345 -26.574541 
-231.059799 81.045357 -160.344894 87.153330 25.988817 -102.147945 109.553584 -4.427394 -173.335899 -65.322351 -2.940531 -16.699555 84.407997 10.494446 -5.924731 21.454560 0.003114 0.000017 -179.744583 4.513791 169.815974 -37.557185 0.925728 2.187584 69.814949 0.373918 5.769761 21.454550 -0.003088 -0.000001 13.661336 -2.812956 0.781734 17.302862 -5.710938 1.134319 16.983124 -5.704111 1.168879 4.079629 -0.927050 4.979446 -34.643297 -6.441122 8.682515 -179.860970 -81.015606 -1.680043 18.666589 35.879165 55.201971 -68.365747 -13.501268 2.356052 -10.487517 -28.049212 10.925950 170.361720 88.365654 -7.958554 -28.504871 -26.660294 29.989073 -115.806513 -0.861957 -3.375488 -7.530423 5.746640 -29.156793 
-232.365204 80.701820 -168.113495 86.672792 24.245020 -100.473018 116.831342 -4.352002 -173.024934 -63.473426 -3.772350 -13.368160 88.819821 7.044566 -14.362460 21.454555 0.003109 0.000018 177.724527 3.362593 167.183305 -53.504441 0.813130 3.135494 72.222359 -0.664673 4.923171 21.454555 -0.003096 -0.000008 13.994099 -3.061706 0.478946 17.988512 -6.160340 0.475475 17.668419 -6.157490 0.512802 4.552599 -1.568866 5.901669 -34.039689 -5.432112 8.979338 -176.961063 -77.372895 -4.574950 7.534555 37.598200 40.576228 -67.892511 -14.426374 2.400717 -7.582790 -34.096578 4.254442 174.319815 84.318692 -4.093825 -22.294045 -36.794161 19.210546 -109.500199 0.125867 -3.175701 -7.382748 6.403310 -30.712933 
-233.647598 79.141617 -176.320496 86.788331 22.438614 -97.391982 121.932933 -3.428994 179.916608 -68.562088 -2.385307 -10.181934 97.602959 6.048276 -10.309880 21.454560 0.003110 0.000019 174.204412 1.529913 168.225251 -71.506480 0.239087 4.268966 72.127740 -0.966211 6.415332 21.454553 -0.003087 0.000003 14.039201 -2.922154 -0.000682 18.100596 -5.807901 -0.460174 17.780721 -5.810705 -0.424989 7.081865 -3.050040 6.558222 -34.585735 -4.480700 9.075248 -179.321057 -73.816491 -2.112055 -1.106795 38.738733 25.454170 -70.866450 -14.563340 2.532747 -8.629983 -35.634289 8.023956 -178.486380 80.460981 3.105543 -16.056270 -45.804598 8.684812 -97.543250 1.815318 -2.767437 -4.769227 6.870376 -29.620317 
-234.833405 78.213768 -184.770706 87.442500 20.353204 -93.449952 129.324701 -1.458692 176.291636 -70.417201 -0.487900 -7.974266 103.836094 5.021526 -8.586712 21.454558 0.003109 0.000017 168.634570 -0.145007 172.813895 -88.563177 -1.523509 4.960356 72.376591 -1.790834 5.258488 21.454541 -0.003095 -0.000009 14.089956 -2.645769 -0.592240 18.221840 -5.164913 -1.596198 17.902472 -5.174589 -1.564916 10.350131 -2.288753 7.175309 -36.094237 -5.096702 10.380753 -178.406973 -73.066946 -3.036995 -11.319019 40.859602 11.701750 -78.306801 -11.806956 2.657144 -14.993242 -36.228891 16.341636 -178.805118 76.639551 2.723685 -7.025340 -53.312857 -4.920086 -84.521480 7.249235 -2.570463 -0.497980 9.190285 -28.054189 
-235.856705 77.816277 -193.371002 88.742128 19.252171 -90.083010 137.557742 0.142110 177.983924 -69.106727 -0.870993 -7.378384 109.185594 4.965943 -8.134587 21.454560 0.003099 0.000018 159.240328 -1.510190 178.705862 -102.728600 -3.249243 6.154296 74.965520 -3.322799 3.086316 21.454553 -0.003093 -0.000002 13.987670 -2.128282 -0.920876 18.012833 -4.086929 -2.163720 17.694088 -4.100045 -2.138985 10.079003 -1.324224 7.795794 -35.846803 -5.485653 11.333931 -179.999021 -73.941237 -1.418944 -21.962436 43.162482 -0.843637 -88.600770 -5.645766 2.679207 -19.126528 -28.903779 23.204951 -170.389287 73.392234 11.308771 4.850042 -57.548981 -20.925599 -72.941994 11.155173 -2.346441 -0.719540 13.507179 -22.180384 
-236.779999 78.459084 -202.210495 91.444902 19.070180 -87.541995 146.370858 -0.675210 -179.434739 -64.383453 -1.539610 -7.177762 111.266500 4.953759 -7.702190 21.454563 0.003111 0.000016 146.420459 -3.110600 -175.492913 -110.752597 -3.837625 6.831107 76.610325 -3.945078 2.652004 21.454553 -0.003090 0.000000 13.726803 -1.309390 -1.367254 17.475309 -2.396894 -2.917365 17.157363 -2.414600 -2.902860 8.806897 -1.306916 9.105620 -35.831084 -5.376666 12.642871 178.785037 -76.072359 -0.213014 -32.863028 45.613653 -11.230311 -99.235429 -1.156826 2.841236 -22.225509 -21.418648 30.446487 -167.427922 72.782359 14.349801 17.769646 -58.950673 -37.237488 -64.593434 11.853699 -2.058478 2.759583 16.076703 -12.078061 
-237.772903 79.791313 -211.543503 94.071478 18.654964 -86.223994 156.505848 -2.555312 -177.745442 -56.626315 -2.247892 -7.337438 108.162903 4.903553 -7.330941 21.454560 0.003110 0.000019 133.413416 -4.207900 -170.426102 -110.865903 -3.422322 6.576815 77.343963 -4.204735 1.240417 21.454553 -0.003095 0.000006 13.551604 -0.459164 -1.913869 17.101363 -0.630025 -3.874536 16.784039 -0.653513 -3.870684 7.599633 -2.397535 10.674489 -35.065447 -4.934404 13.851513 -179.490978 -78.538494 -2.015003 -42.868183 47.184774 -17.981019 -107.710806 0.731866 3.085802 -22.811829 -17.402258 33.085788 -170.113511 74.146833 11.593089 28.434385 -56.895360 -53.525297 -60.619616 11.333033 -1.872251 7.459891 17.128277 1.996021 
-238.707596 81.689957 -221.634293 97.041381 17.675546 -85.375001 167.335864 -5.714402 -177.643412 -47.329666 -3.171432 -7.628151 97.607392 4.765529 -5.199280 21.454560 0.003104 0.000021 123.867939 -4.947297 -166.710943 -103.006896 -1.566414 5.016090 78.178967 -2.851677 2.609411 21.454553 -0.003100 0.000009 13.442784 0.505366 -2.319358 16.847138 1.343456 -4.540382 16.530040 1.315895 -4.548399 8.061533 -2.888431 11.913468 -34.363201 -5.441154 15.362728 -174.948015 -80.779725 -6.659051 -49.647774 48.553277 -21.397183 -113.168400 1.609810 3.261617 -22.801004 -15.269057 31.603770 -173.372918 75.196674 8.259285 35.394033 -52.906041 -65.391254 -59.748617 10.240538 -1.766010 8.494234 17.702652 5.480909 
-239.737198 83.411613 -231.997498 99.182311 17.621591 -84.952028 175.757460 -8.637404 -179.444287 -39.779722 -4.439007 -7.189020 81.876100 4.307862 -3.683723 21.454557 0.003101 0.000018 117.159136 -4.698700 -165.172880 -89.652161 2.115572 3.665807 77.434831 -2.078448 2.377020 21.454558 -0.003092 -0.000002 13.060148 1.307664 -2.678623 16.045670 2.974539 -5.151120 15.728514 2.943274 -5.168951 8.967948 -2.705759 12.628335 -32.887252 -6.085729 16.414516 -169.056990 -81.197391 -12.633065 -51.791193 49.390713 -20.979430 -116.334391 1.972284 3.370839 -22.331893 -13.238332 31.704263 -172.789429 75.627577 8.859008 40.078683 -48.819569 -74.293149 -60.198999 9.978144 -1.764682 8.329678 17.462878 7.369394 
-240.960602 84.456749 -242.751297 99.622796 17.808745 -85.573002 -177.041208 -9.755589 176.410672 -35.901093 -4.756232 -5.948470 72.298809 2.009653 -7.646572 21.454565 0.003111 0.000019 114.306788 -4.631691 -164.952880 -72.257582 4.913189 3.946860 77.226996 -1.937127 3.874611 21.454550 -0.003098 0.000001 12.569391 1.688874 -2.947000 15.041193 3.746874 -5.651663 14.724059 3.712603 -5.674119 10.194832 -1.888211 12.932179 -31.574288 -6.700061 17.076981 -163.204966 -80.767964 -18.569958 -50.949646 50.385107 -18.343253 -118.224304 2.200826 3.433931 -21.413821 -11.949377 34.321383 -173.459703 75.766667 8.174383 46.004818 -44.795628 -79.321815 -62.500083 9.124178 -1.792092 8.637010 17.589979 12.356295 
